<svg width="36" height="37" viewBox="0 0 36 37" fill="none" xmlns="http://www.w3.org/2000/svg">
<path d="M32.6711 18.6325C32.8319 26.7387 26.3861 33.4359 18.2907 33.5936C10.1843 33.7544 3.48716 27.309 3.32951 19.2137C3.16879 11.1075 9.60336 4.41327 17.7098 4.2526C25.8022 4.08374 32.5105 10.5261 32.6711 18.6325Z" fill="url(#paint0_linear_146_862)"/>
<path d="M23.5176 15.348C23.29 13.3909 21.5882 12.7547 19.4356 12.6073L19.3925 9.87667L17.738 9.9045L17.7855 12.5628C17.3489 12.5729 16.9013 12.586 16.4567 12.6102L16.4062 9.94081L14.7517 9.96864L14.803 12.6853C14.4389 12.6997 14.0858 12.7113 13.7438 12.7198L13.7409 12.7087L11.4497 12.7528L11.485 14.524C11.485 14.524 12.7082 14.4812 12.689 14.4982C13.3619 14.4841 13.5854 14.8753 13.6523 15.2135L13.7018 18.3224C13.7491 18.3216 13.8074 18.3178 13.8828 18.3332C13.8244 18.337 13.7661 18.3408 13.7048 18.3335L13.7779 22.6824C13.7508 22.8915 13.6286 23.2329 13.167 23.2379C13.184 23.2571 11.9631 23.2637 11.9631 23.2637L11.6656 25.2547L13.829 25.2211C14.2323 25.2199 14.6215 25.2105 15.0137 25.2123L15.0628 27.9651L16.7173 27.9373L16.6742 25.2066C17.1247 25.2046 17.5753 25.2026 18.0008 25.1954L18.052 27.912L19.7065 27.8842L19.6574 25.1314C22.4492 24.9175 24.3895 24.1839 24.5761 21.5579C24.7354 19.4496 23.7268 18.5209 22.1353 18.1638C23.1031 17.6552 23.6863 16.7748 23.5176 15.348ZM21.2978 21.2848C21.3379 23.3396 17.8026 23.171 16.6791 23.1872L16.6149 19.5362C17.7384 19.52 21.2671 19.1325 21.2978 21.2848ZM20.4407 16.1368C20.4695 18.0166 17.5266 17.8436 16.5923 17.8565L16.5366 14.5475C17.4709 14.5346 20.4051 14.1876 20.4407 16.1368Z" fill="white"/>
<defs>
<linearGradient id="paint0_linear_146_862" x1="1415.89" y1="-375.049" x2="2182.32" y2="2459.02" gradientUnits="userSpaceOnUse">
<stop stop-color="#F9AA4B"/>
<stop offset="1" stop-color="#F7931A"/>
</linearGradient>
</defs>
</svg>
