<svg width="19" height="14" viewBox="0 0 19 14" fill="none" xmlns="http://www.w3.org/2000/svg">
<path fill-rule="evenodd" clip-rule="evenodd" d="M1.78685 6.4484C2.42436 5.59886 3.47769 4.35853 4.82813 3.33703C6.18202 2.31291 7.77152 1.55556 9.5 1.55556C11.2285 1.55556 12.818 2.31291 14.1718 3.33703C15.5223 4.35853 16.5757 5.59886 17.2131 6.4484C17.4645 6.78326 17.4645 7.21674 17.2131 7.5516C16.5757 8.40114 15.5223 9.64144 14.1718 10.6629C12.818 11.6871 11.2285 12.4444 9.5 12.4444C7.77152 12.4444 6.18202 11.6871 4.82813 10.6629C3.47769 9.64144 2.42436 8.40114 1.78685 7.5516C1.53555 7.21674 1.53555 6.78326 1.78685 6.4484ZM9.5 0C7.28466 0 5.35608 0.967525 3.84724 2.10884C2.33495 3.25276 1.1809 4.61837 0.496063 5.53093C-0.165354 6.41241 -0.165354 7.58759 0.496063 8.46907C1.1809 9.38166 2.33495 10.7472 3.84724 11.8912C5.35608 13.0324 7.28466 14 9.5 14C11.7153 14 13.6439 13.0324 15.1528 11.8912C16.6651 10.7472 17.8191 9.38166 18.5039 8.46907C19.1654 7.58759 19.1654 6.41241 18.5039 5.53093C17.8191 4.61837 16.6651 3.25276 15.1528 2.10883C13.6439 0.967525 11.7153 0 9.5 0ZM9.5 9.07407C10.677 9.07407 11.6312 8.14551 11.6312 7C11.6312 5.85449 10.677 4.92593 9.5 4.92593C8.32296 4.92593 7.36884 5.85449 7.36884 7C7.36884 8.14551 8.32296 9.07407 9.5 9.07407Z" fill="#94A3B8"/>
</svg>
