<svg width="24" height="12" viewBox="0 0 24 12" fill="none" xmlns="http://www.w3.org/2000/svg">
<path fill-rule="evenodd" clip-rule="evenodd" d="M4.58751 8.61236C4.81862 9.12433 4.86284 9.70114 4.71245 10.2424C4.56207 10.7836 4.22662 11.2549 3.76451 11.5742C3.30241 11.8936 2.74293 12.0407 2.1835 11.9901C1.62408 11.9394 1.10015 11.6941 0.702956 11.2969C0.305762 10.8997 0.0604686 10.3758 0.00979111 9.81635C-0.0408864 9.25692 0.106263 8.69744 0.425614 8.23534C0.744965 7.77324 1.21629 7.43778 1.7575 7.2874C2.29871 7.13702 2.87553 7.18123 3.3875 7.41234L6.21233 4.58751C6.04739 4.22198 5.97667 3.82095 6.00664 3.42105C6.0366 3.02115 6.16629 2.63513 6.38386 2.29827C6.60143 1.9614 6.89994 1.68442 7.25213 1.49263C7.60431 1.30083 7.99894 1.20035 8.39996 1.20035C8.80098 1.20035 9.1956 1.30083 9.54779 1.49263C9.89997 1.68442 10.1985 1.9614 10.4161 2.29827C10.6336 2.63513 10.7633 3.02115 10.7933 3.42105C10.8232 3.82095 10.7525 4.22198 10.5876 4.58751L13.4124 7.41234C13.7228 7.2722 14.0595 7.19973 14.4 7.19973C14.7406 7.19973 15.0773 7.2722 15.3876 7.41234L19.4125 3.3875C19.1814 2.87553 19.1372 2.29871 19.2875 1.7575C19.4379 1.21629 19.7734 0.744966 20.2355 0.425614C20.6976 0.106263 21.2571 -0.0408864 21.8165 0.0097911C22.3759 0.0604686 22.8999 0.305762 23.297 0.702956C23.6942 1.10015 23.9395 1.62408 23.9902 2.18351C24.0409 2.74293 23.8937 3.30241 23.5744 3.76452C23.255 4.22662 22.7837 4.56207 22.2425 4.71245C21.7013 4.86284 21.1245 4.81862 20.6125 4.58751L16.5877 8.61236C16.7526 8.97789 16.8233 9.37892 16.7934 9.77882C16.7634 10.1787 16.6337 10.5647 16.4161 10.9016C16.1986 11.2385 15.9 11.5155 15.5479 11.7072C15.1957 11.899 14.801 11.9995 14.4 11.9995C13.999 11.9995 13.6044 11.899 13.2522 11.7072C12.9 11.5155 12.6015 11.2385 12.3839 10.9016C12.1664 10.5647 12.0367 10.1787 12.0067 9.77882C11.9767 9.37892 12.0475 8.97789 12.2124 8.61236L9.38757 5.78753C9.07718 5.92767 8.74052 6.00014 8.39996 6.00014C8.0594 6.00014 7.72273 5.92767 7.41234 5.78753L4.58751 8.61236Z" fill="#94A3B8"/>
</svg>
