<svg width="18" height="18" viewBox="0 0 18 18" fill="none" xmlns="http://www.w3.org/2000/svg">
<path d="M9 0C7.21997 0 5.47991 0.527841 3.99987 1.51677C2.51983 2.50571 1.36628 3.91131 0.685088 5.55585C0.00389953 7.20038 -0.17433 9.00998 0.172936 10.7558C0.520203 12.5016 1.37737 14.1053 2.63604 15.364C3.89471 16.6226 5.49836 17.4798 7.24419 17.8271C8.99002 18.1743 10.7996 17.9961 12.4442 17.3149C14.0887 16.6337 15.4943 15.4802 16.4832 14.0001C17.4722 12.5201 18 10.78 18 9C18 6.61305 17.0518 4.32387 15.364 2.63604C13.6761 0.948211 11.387 0 9 0ZM1.125 9C1.14956 6.97685 1.95188 5.04077 3.36557 3.59328C4.77926 2.14579 6.69584 1.29796 8.71785 1.22562C10.7399 1.15327 12.7121 1.86197 14.2256 3.20473C15.7392 4.54749 16.6778 6.42128 16.8469 8.4375H8.71313L3.54375 14.6644C2.78068 13.9312 2.17322 13.0517 1.75764 12.0785C1.34206 11.1052 1.1269 10.0582 1.125 9ZM9 16.875C7.3511 16.8745 5.74455 16.3528 4.41 15.3844L9.24188 9.5625H16.8469C16.7047 11.5472 15.8165 13.4046 14.3608 14.7612C12.9051 16.1178 10.9898 16.873 9 16.875Z" fill="#94A3B8"/>
</svg>
