<svg width="24" height="12" viewBox="0 0 24 12" fill="none" xmlns="http://www.w3.org/2000/svg">
<path fill-rule="evenodd" clip-rule="evenodd" d="M4.58751 3.38754C4.81862 2.87556 4.86284 2.29874 4.71245 1.75752C4.56207 1.2163 4.22662 0.744975 3.76451 0.42562C3.30241 0.106265 2.74293 -0.0408869 2.1835 0.00979137C1.62408 0.0604696 1.10015 0.305767 0.702956 0.702965C0.305762 1.10016 0.0604686 1.6241 0.00979111 2.18353C-0.0408864 2.74296 0.106263 3.30245 0.425614 3.76456C0.744965 4.22667 1.21629 4.56213 1.7575 4.71251C2.29871 4.8629 2.87553 4.81868 3.3875 4.58757L6.21233 7.41243C6.04739 7.77797 5.97667 8.17901 6.00664 8.57891C6.0366 8.97881 6.16629 9.36483 6.38386 9.70171C6.60143 10.0386 6.89994 10.3156 7.25213 10.5074C7.60431 10.6991 7.99894 10.7996 8.39996 10.7996C8.80098 10.7996 9.1956 10.6991 9.54779 10.5074C9.89997 10.3156 10.1985 10.0386 10.4161 9.70171C10.6336 9.36483 10.7633 8.97881 10.7933 8.57891C10.8232 8.17901 10.7525 7.77797 10.5876 7.41243L13.4124 4.58757C13.7228 4.72771 14.0595 4.80019 14.4 4.80019C14.7406 4.80019 15.0773 4.72771 15.3876 4.58757L19.4125 8.61246C19.1814 9.12444 19.1372 9.70126 19.2875 10.2425C19.4379 10.7837 19.7734 11.255 20.2355 11.5744C20.6976 11.8937 21.2571 12.0409 21.8165 11.9902C22.3759 11.9395 22.8999 11.6942 23.297 11.297C23.6942 10.8998 23.9395 10.3759 23.9902 9.81647C24.0409 9.25704 23.8937 8.69755 23.5744 8.23544C23.255 7.77333 22.7837 7.43787 22.2425 7.28749C21.7013 7.1371 21.1245 7.18132 20.6125 7.41243L16.5877 3.38754C16.7526 3.022 16.8233 2.62097 16.7934 2.22106C16.7634 1.82116 16.6337 1.43514 16.4161 1.09826C16.1986 0.761393 15.9 0.484406 15.5479 0.292614C15.1957 0.100821 14.801 0.000335693 14.4 0.000335693C13.999 0.000335693 13.6044 0.100821 13.2522 0.292614C12.9 0.484406 12.6015 0.761393 12.3839 1.09826C12.1664 1.43514 12.0367 1.82116 12.0067 2.22106C11.9767 2.62097 12.0475 3.022 12.2124 3.38754L9.38757 6.21241C9.07718 6.07226 8.74052 5.99978 8.39996 5.99978C8.0594 5.99978 7.72273 6.07226 7.41234 6.21241L4.58751 3.38754Z" fill="#94A3B8"/>
</svg>
